HIERARCHY
ROOT RootJoint
{
    OFFSET   0.000000   0.000000   0.000000
    CHANNELS 6 Xposition Yposition Zposition Xrotation Yrotation Zrotation
    JOINT pelvis_lowerback
    {
        OFFSET   0.000000   0.093605   0.000000
        CHANNELS 3 Xrotation Yrotation Zrotation
        JOINT lowerback_torso
        {
            OFFSET   0.000000   0.100000   0.000000
            CHANNELS 3 Xrotation Yrotation Zrotation
            JOINT torso_head
            {
                OFFSET   0.000000   0.282350   0.000000
                CHANNELS 3 Xrotation Yrotation Zrotation
                End Site
                {
                    OFFSET   0.000000   0.192650   0.000000
                }
            }
            JOINT rTorso_Clavicle
            {
                OFFSET  -0.001000   0.157500   0.000000
                CHANNELS 3 Xrotation Yrotation Zrotation
                JOINT rShoulder
                {
                    OFFSET  -0.117647   0.000000   0.000000
                    CHANNELS 3 Xrotation Yrotation Zrotation
                    JOINT rElbow
                    {
                        OFFSET  -0.245000   0.000000   0.000000
                        CHANNELS 3 Xrotation Yrotation Zrotation
                        JOINT rWrist
                        {
                            OFFSET  -0.240000   0.000000   0.000000
                            CHANNELS 3 Xrotation Yrotation Zrotation
                            End Site
                            {
                                OFFSET  -0.116353  -0.002500   0.000000
                            }
                        }
                    }
                }
            }
            JOINT lTorso_Clavicle
            {
                OFFSET   0.001000   0.157500   0.000000
                CHANNELS 3 Xrotation Yrotation Zrotation
                JOINT lShoulder
                {
                    OFFSET   0.117647   0.000000   0.000000
                    CHANNELS 3 Xrotation Yrotation Zrotation
                    JOINT lElbow
                    {
                        OFFSET   0.245000   0.000000   0.000000
                        CHANNELS 3 Xrotation Yrotation Zrotation
                        JOINT lWrist
                        {
                            OFFSET   0.240000   0.000000   0.000000
                            CHANNELS 3 Xrotation Yrotation Zrotation
                            End Site
                            {
                                OFFSET   0.116353  -0.002500   0.000000
                            }
                        }
                    }
                }
            }
        }
    }
    JOINT rHip
    {
        OFFSET  -0.100000  -0.051395   0.000000
        CHANNELS 3 Xrotation Yrotation Zrotation
        JOINT rKnee
        {
            OFFSET   0.000000  -0.410000   0.000000
            CHANNELS 3 Xrotation Yrotation Zrotation
            JOINT rAnkle
            {
                OFFSET   0.000000  -0.390000   0.000000
                CHANNELS 3 Xrotation Yrotation Zrotation
                JOINT rToeJoint
                {
                    OFFSET   0.000000  -0.050000   0.130000
                    CHANNELS 3 Xrotation Yrotation Zrotation
                    End Site
                    {
                        OFFSET  -0.010000   0.002000   0.060000
                    }
                }
            }
        }
    }
    JOINT lHip
    {
        OFFSET   0.100000  -0.051395   0.000000
        CHANNELS 3 Xrotation Yrotation Zrotation
        JOINT lKnee
        {
            OFFSET   0.000000  -0.410000   0.000000
            CHANNELS 3 Xrotation Yrotation Zrotation
            JOINT lAnkle
            {
                OFFSET   0.000000  -0.390000   0.000000
                CHANNELS 3 Xrotation Yrotation Zrotation
                JOINT lToeJoint
                {
                    OFFSET   0.000000  -0.050000   0.130000
                    CHANNELS 3 Xrotation Yrotation Zrotation
                    End Site
                    {
                        OFFSET   0.010000   0.002000   0.060000
                    }
                }
            }
        }
    }
}
MOTION
Frames: 17
Frame Time:   0.008333
 -2.349939   0.909394   4.511502   2.969890 -13.703438  -0.263349   3.093528   0.704316   0.063647  -4.381064   0.476033   1.617759  -2.864654   1.097559   0.525226   3.860132  -1.839919   4.637478  13.203475  19.249790  51.989236  -0.005365  30.917896   0.006916   9.270555   5.130872 -33.780881   3.681018   2.891642  -3.040437  14.319181 -13.926219 -56.133871  -0.000308 -32.688077  -0.000698   8.420815  -6.526649  32.746973  -7.372902   1.984315  -3.035021  19.520175   0.000514   0.000447 -12.018372  -3.401786   1.961888  -4.425032   0.000034   0.000008 -13.964123  -2.276868   4.384969  21.003395   0.000121   0.000144 -10.404009   5.646440   4.034208   0.784223  -0.000019   0.000000
 -2.350752   0.909491   4.511961   2.691497 -13.706332  -0.375900   3.138740   0.695002   0.094597  -4.365031   0.472989   1.646638  -2.772803   1.091522   0.548087   3.819040  -1.934382   4.599130  13.047398  19.053497  52.014859  -0.005048  31.132411   0.006560   9.255832   5.151070 -33.859557   3.663124   2.976515  -3.033303  14.183873 -13.843065 -56.290119  -0.000307 -32.742802  -0.000739   8.418959  -6.511531  32.857417  -6.962948   1.933687  -2.942018  19.352812   0.000501   0.000392 -11.985056  -3.418106   1.966127  -4.435109   0.000032   0.000011 -13.613313  -2.290758   4.476241  20.980077   0.000105   0.000115 -10.469420   5.651355   4.074597   0.784030  -0.000015   0.000000
 -2.351567   0.909570   4.512394   2.420291 -13.704787  -0.484428   3.176460   0.690345   0.126178  -4.346366   0.471672   1.674577  -2.682378   1.086346   0.571158   3.779808  -2.021816   4.568387  12.900136  18.871629  52.041564  -0.004693  31.333160   0.006143   9.239500   5.169314 -33.927762   3.643894   3.052739  -3.041106  14.052122 -13.772336 -56.449513  -0.000294 -32.798355  -0.000768   8.420780  -6.503886  32.944457  -6.568641   1.885209  -2.851073  19.200858   0.000480   0.000338 -11.959464  -3.433699   1.971148  -4.443606   0.000030   0.000013 -13.276477  -2.304925   4.565516  20.964960   0.000090   0.000091 -10.535813   5.652949   4.111993   0.783823  -0.000012   0.000000
 -2.352388   0.909633   4.512793   2.162482 -13.700279  -0.585949   3.206738   0.687572   0.156368  -4.331852   0.471525   1.699996  -2.597784   1.081736   0.593397   3.742960  -2.102232   4.544110  12.761854  18.703467  52.069221  -0.004323  31.520989   0.005697   9.225349   5.189098 -33.986952   3.625501   3.122605  -3.058305  13.927206 -13.709379 -56.605785  -0.000275 -32.851654  -0.000777   8.422674  -6.497483  33.013289  -6.196404   1.840335  -2.763446  19.062852   0.000455   0.000288 -11.940732  -3.447980   1.977189  -4.449003   0.000026   0.000012 -12.957828  -2.319228   4.651572  20.952792   0.000077   0.000072 -10.599796   5.652826   4.146901   0.783642  -0.000009   0.000000
 -2.353214   0.909684   4.513154   1.918591 -13.693564  -0.680413   3.230581   0.685941   0.184677  -4.321753   0.472214   1.722938  -2.519303   1.077536   0.614416   3.708236  -2.176206   4.524828  12.632067  18.547814  52.097093  -0.003955  31.696710   0.005244   9.213427   5.210525 -34.038901   3.608335   3.187117  -3.080862  13.809731 -13.652283 -56.756369  -0.000253 -32.902032  -0.000768   8.424629  -6.491954  33.069298  -5.845988   1.798878  -2.678904  18.936535   0.000427   0.000242 -11.927869  -3.460979   1.984091  -4.450516   0.000022   0.000010 -12.657138  -2.333537   4.734664  20.941837   0.000066   0.000057 -10.660397   5.651467   4.179674   0.783481  -0.000007   0.000000
 -2.354044   0.909724   4.513475   1.688213 -13.685261  -0.768189   3.249012   0.685212   0.211080  -4.315411   0.473590   1.743722  -2.446550   1.073683   0.634124   3.675446  -2.244343   4.509228  12.510350  18.403533  52.124507  -0.003600  31.861050   0.004797   9.203363   5.233095 -34.085288   3.592406   3.246938  -3.106197  13.699660 -13.599949 -56.899962  -0.000230 -32.949389  -0.000747   8.426604  -6.487061  33.116316  -5.516475   1.760553  -2.597128  18.820390   0.000400   0.000201 -11.920092  -3.472759   1.991723  -4.447843   0.000016   0.000008 -12.373680  -2.347752   4.815120  20.931405   0.000057   0.000045 -10.717277   5.649213   4.210571   0.783336  -0.000006   0.000000
 -2.354879   0.909754   4.513757   1.470738 -13.675854  -0.849673   3.262957   0.685243   0.235728  -4.312097   0.475545   1.762681  -2.379069   1.070139   0.652538   3.644475  -2.307211   4.496297  12.396319  18.269599  52.150974  -0.003261  32.014682   0.004365   9.194763   5.256258 -34.127402   3.577663   3.302577  -3.132669  13.596762 -13.551627 -57.035943  -0.000208 -32.993766  -0.000715   8.428565  -6.482645  33.156961  -5.206851   1.725092  -2.517887  18.713310   0.000373   0.000165 -11.916815  -3.483399   1.999988  -4.440832   0.000009   0.000004 -12.106647  -2.361791   4.893176  20.921147   0.000050   0.000035 -10.770308   5.646319   4.239786   0.783202  -0.000004   0.000000
 -2.355737   0.909759   4.514048   1.204561 -13.634474  -0.965438   3.303751   0.697261   0.280283  -4.270446   0.479198   1.793510  -2.308307   1.063441   0.676841   3.619171  -2.344314   4.492123  12.313826  18.157600  52.165542  -0.002760  32.097852   0.003685   9.193470   5.285811 -34.135930   3.547505   3.321253  -3.165197  13.479839 -13.572380 -57.214844  -0.000167 -32.977449  -0.000537   8.438607  -6.472728  33.202306  -4.830459   1.667821  -2.415088  18.583601   0.000363   0.000123 -11.915039  -3.490797   1.993814  -4.428431   0.000002   0.000002 -11.815719  -2.389370   4.994279  20.958079   0.000025   0.000039 -10.846616   5.619252   4.260614   0.792748  -0.000010   0.000000
 -2.356601   0.909745   4.514312   0.945221 -13.586986  -1.078075   3.339590   0.715175   0.323373  -4.226574   0.485275   1.823896  -2.240370   1.058170   0.701907   3.600578  -2.377519   4.497041  12.240268  18.053603  52.184325  -0.002319  32.172009   0.003095   9.185641   5.300521 -34.110944   3.517679   3.333682  -3.214507  13.365591 -13.599167 -57.397405  -0.000137 -32.963919  -0.000400   8.450104  -6.464314  33.213578  -4.468052   1.614531  -2.313048  18.467072   0.000346   0.000082 -11.920171  -3.496531   1.990217  -4.414208  -0.000005   0.000001 -11.539234  -2.419511   5.094564  21.004649   0.000001   0.000047 -10.924634   5.588784   4.279446   0.801754  -0.000013   0.000000
 -2.357472   0.909720   4.514542   0.698151 -13.538274  -1.183413   3.370233   0.735001   0.362976  -4.186167   0.493025   1.851133  -2.176979   1.053669   0.725964   3.585395  -2.408063   4.508897  12.172239  17.957848  52.207032  -0.001944  32.240811   0.002599   9.176878   5.312300 -34.070144   3.490716   3.344777  -3.272967  13.257571 -13.627074 -57.577242  -0.000115 -32.952204  -0.000296   8.461508  -6.457441  33.204619  -4.125847   1.563817  -2.214165  18.362633   0.000326   0.000049 -11.930850  -3.502975   1.989014  -4.396718  -0.000013   0.000000 -11.278117  -2.449704   5.191603  21.051606  -0.000018   0.000054 -10.999477   5.558026   4.296949   0.810019  -0.000016   0.000000
 -2.358348   0.909687   4.514733   0.464085 -13.490369  -1.281248   3.396285   0.755549   0.399084  -4.149699   0.502004   1.875182  -2.118143   1.049646   0.748537   3.572089  -2.435927   4.525109  12.108568  17.869774  52.231957  -0.001628  32.305155   0.002183   9.169151   5.324555 -34.021484   3.466893   3.355391  -3.335633  13.156552 -13.654484 -57.751270  -0.000097 -32.941520  -0.000216   8.472694  -6.451648  33.183341  -3.803976   1.515453  -2.118398  18.267853   0.000306   0.000024 -11.945764  -3.510098   1.989505  -4.375210  -0.000021  -0.000001 -11.031845  -2.479052   5.285505  21.096426  -0.000034   0.000059 -11.069866   5.528069   4.313477   0.817597  -0.000017   0.000000
 -2.359228   0.909648   4.514884   0.242804 -13.444096  -1.371950   3.418456   0.776296   0.432016  -4.116855   0.511879   1.896465  -2.063537   1.045984   0.769571   3.559913  -2.461259   4.543633  12.048755  17.788618  52.257668  -0.001365  32.365450   0.001837   9.162809   5.337899 -33.969098   3.445899   3.365724  -3.399394  13.062457 -13.680694 -57.917736  -0.000083 -32.931554  -0.000154   8.483621  -6.446626  33.154574  -3.501680   1.469577  -2.025556  18.181060   0.000287   0.000005 -11.964081  -3.517476   1.991319  -4.349354  -0.000031  -0.000001 -10.799839  -2.507286   5.376529  21.138342  -0.000045   0.000061 -11.135411   5.499336   4.329241   0.824541  -0.000018   0.000000
 -2.360111   0.909605   4.514996   0.033797 -13.399869  -1.455957   3.437389   0.796955   0.462156  -4.087197   0.522379   1.915429  -2.012809   1.042627   0.789131   3.548505  -2.484301   4.563043  11.992544  17.713638  52.283162  -0.001145  32.421950   0.001547   9.157704   5.352138 -33.915422   3.427344   3.375826  -3.462298  12.974967 -13.705373 -58.075706  -0.000071 -32.922154  -0.000106   8.494251  -6.442170  33.121524  -3.218034   1.426183  -1.935488  18.101150   0.000268  -0.000009 -11.985247  -3.524880   1.994261  -4.319048  -0.000041  -0.000002 -10.581458  -2.534304   5.464860  21.177101  -0.000053   0.000062 -11.196015   5.472019   4.344374   0.830903  -0.000018   0.000000
 -2.361004   0.909526   4.515071  -0.222758 -13.308573  -1.555838   3.495328   0.831488   0.498032  -4.025261   0.528280   1.933214  -1.950076   1.041969   0.804275   3.544606  -2.459370   4.575736  11.997590  17.693155  52.309281  -0.000920  32.378900   0.001260   9.174655   5.375123 -33.847979   3.390475   3.310825  -3.521243  12.908019 -13.822479 -58.238276  -0.000139 -32.854137  -0.000040   8.524078  -6.426031  33.081249  -2.879316   1.349004  -1.837149  18.022038   0.000254  -0.000029 -12.026386  -3.547441   1.977066  -4.271256  -0.000053  -0.000004 -10.338615  -2.572424   5.560010  21.245239  -0.000070   0.000094 -11.262156   5.407007   4.333147   0.858113  -0.000026   0.000001
 -2.361894   0.909432   4.515097  -0.472323 -13.209827  -1.650060   3.553134   0.871952   0.530855  -3.958937   0.536069   1.948630  -1.889260   1.042950   0.818553   3.547514  -2.431708   4.597361  12.007042  17.675744  52.340202  -0.000753  32.333939   0.001046   9.184898   5.380516 -33.732847   3.350583   3.240037  -3.590422  12.837904 -13.940491 -58.400468  -0.000192 -32.792509   0.000010   8.563989  -6.422200  33.004694  -2.556256   1.270592  -1.741350  17.956938   0.000236  -0.000043 -12.074097  -3.575293   1.963416  -4.219994  -0.000065  -0.000006 -10.109881  -2.613723   5.651597  21.317914  -0.000085   0.000126 -11.325660   5.337929   4.321046   0.883872  -0.000032   0.000001
 -2.362779   0.909333   4.515079  -0.709609 -13.112284  -1.737091   3.608288   0.913545   0.560568  -3.894612   0.545487   1.961869  -1.831769   1.044457   0.831896   3.552516  -2.404744   4.625243  12.016471  17.661152  52.374693  -0.000624  32.291464   0.000875   9.193509   5.382991 -33.599976   3.312377   3.172201  -3.665032  12.769525 -14.053955 -58.559391  -0.000229 -32.736529   0.000047   8.594351  -6.406795  32.911690  -2.252834   1.194908  -1.648746  17.900274   0.000216  -0.000053 -12.124535  -3.604128   1.952419  -4.165061  -0.000078  -0.000008  -9.895669  -2.654997   5.739665  21.388208  -0.000097   0.000149 -11.384271   5.270491   4.309686   0.907518  -0.000036   0.000001
 -2.363659   0.909232   4.515018  -0.934068 -13.018764  -1.817240   3.660293   0.954696   0.587646  -3.833353   0.556079   1.973389  -1.777895   1.046084   0.844286   3.558034  -2.378712   4.656524  12.024980  17.648980  52.410834  -0.000522  32.251979   0.000736   9.202582   5.386468 -33.461481   3.277468   3.108849  -3.741257  12.704969 -14.161124 -58.712803  -0.000253 -32.684522   0.000074   8.623992  -6.393198  32.812351  -1.968538   1.122996  -1.559153  17.849140   0.000198  -0.000059 -12.176213  -3.632445   1.943437  -4.106186  -0.000091  -0.000010  -9.695079  -2.694998   5.824704  21.454356  -0.000105   0.000162 -11.437624   5.206225   4.299345   0.929191  -0.000038   0.000001
